<svg width="321" height="41" viewBox="0 0 321 41" fill="none" xmlns="http://www.w3.org/2000/svg">
<g clip-path="url(#clip0_1_4)">
<path d="M14.9523 5.13597H34.0381V10.8831H21.5573V18.2172H31.8078V23.9215H21.5573V35.7161H14.9523V5.13597ZM39.4361 35.7161H32.7454L44.497 5.13597H50.9304L62.6392 35.7161H55.9485L53.2894 28.7251H42.0952L39.4361 35.7161ZM47.7137 12.5558L44.111 23.1066H51.3164L47.7137 12.5558ZM80.0379 13.8425C78.7083 11.698 76.8641 10.5829 74.7196 10.5829C72.5752 10.5829 70.7738 11.6552 70.7738 13.5423C70.7738 15.601 73.4329 16.373 76.6496 17.7883C81.6248 19.9328 85.4848 21.8199 85.4848 27.224C85.4848 32.0276 81.4104 36.2736 74.5052 36.2736C69.9589 36.2736 65.5413 34.0863 63.3111 30.0976L68.0718 26.2804C69.4013 28.5536 71.7174 30.2691 74.5481 30.2691C77.1214 30.2691 78.8799 29.0682 78.8799 27.4384C78.8799 25.0795 76.4781 24.6077 72.232 22.7206C67.986 20.8335 64.2117 18.9035 64.2117 13.7138C64.2117 8.43845 68.758 4.6213 74.8054 4.6213C79.0943 4.6213 82.8257 6.59421 84.8844 10.1969L80.0379 13.8425ZM90.3856 5.13597H96.9906V17.145H109.514V5.13597H116.119V35.7161H109.514V23.2353H96.9906V35.7161H90.3856V5.13597ZM123.223 35.7161V5.13597H129.828V35.7161H123.223ZM150.814 4.6213C160.035 4.6213 166.726 11.5694 166.726 20.4046C166.726 29.2398 160.035 36.2308 150.814 36.2308C141.55 36.2308 134.859 29.2398 134.859 20.4046C134.859 11.5694 141.55 4.6213 150.814 4.6213ZM150.814 10.8831C145.539 10.8831 141.679 15.0005 141.679 20.4046C141.679 25.8086 145.539 29.9689 150.814 29.9689C156.089 29.9689 159.907 25.8086 159.907 20.4046C159.907 15.0005 156.089 10.8831 150.814 10.8831ZM171.725 35.7161V5.13597H177.3L191.368 24.3075V5.13597H197.973V35.7161H192.397L178.33 16.3301V35.7161H171.725ZM216.353 5.56487H233.123V8.26689H219.313V19.5039H231.322V22.163H219.313V35.7161H216.353V5.56487ZM239.557 35.7161V5.56487H242.516V32.9712H256.37V35.7161H239.557ZM262.133 5.56487H280.361V8.26689H265.092V19.1179H277.787V21.8628H265.092V32.9712H280.961V35.7161H262.133V5.56487ZM284.034 35.7161L294.071 19.9757L284.849 5.56487H288.323L296.001 17.7026L303.678 5.56487H307.152L297.931 19.9757L307.967 35.7161H304.578L296.001 22.2059L287.423 35.7161H284.034Z" fill="#3B3B3B"/>
</g>
<defs>
<clipPath id="clip0_1_4">
<rect width="321" height="39.5386" fill="white" transform="translate(0 0.71608)"/>
</clipPath>
</defs>
</svg>
